<svg height="332" viewBox="0 0 518 332" width="518" xmlns="http://www.w3.org/2000/svg"><path d="m6.05 275.145 48.228-12.6a11.769 11.769 0 0 1 8.5 1.545l20.549 14.216c2.183 1.509 1.915 3.265-.6 3.922l-48.227 12.6a11.778 11.778 0 0 1 -8.5-1.545l-20.548-14.216c-2.183-1.51-1.915-3.267.598-3.922z" fill="#f8f8fc" fill-rule="evenodd"/><path d="m5 267 49.278-9.454a11.769 11.769 0 0 1 8.5 1.545l21.222 10.909c2.182 1.51 1.244 6.572-1.269 7.229l-48.231 12.599a11.778 11.778 0 0 1 -8.5-1.545l-20.548-14.216c-2.183-1.51-2.965-6.411-.452-7.067z" fill="#f0f0fa" fill-rule="evenodd" stroke="#e6e6f2"/><path d="m6.05 265.145 48.228-12.6a11.769 11.769 0 0 1 8.5 1.545l20.549 14.216c2.183 1.509 1.915 3.265-.6 3.922l-48.227 12.6a11.778 11.778 0 0 1 -8.5-1.545l-20.548-14.216c-2.183-1.51-1.915-3.267.598-3.922z" fill="#fff" fill-rule="evenodd" stroke="#e6e6f2"/><path d="m8.421 266.785 46.409-12.123 23.71 16.4-46.409 12.125z" fill="#fff" fill-rule="evenodd" stroke="#e6e6f2"/><path d="m365 123s45 14 71-26 80-13 81 13-32 127-119 120-272 18-306-106 129-108 122-37 151 36 151 36z" fill="#f8f8fc" fill-rule="evenodd"/><path d="m297 28s-10 70 42 67 98-22 75-59-120-54-117-8z" fill="#f8f8fc" fill-rule="evenodd"/><ellipse cx="445" cy="313.5" fill="#f8f8fc" rx="38" ry="10.5"/><ellipse cx="378.5" cy="278" fill="#f8f8fc" rx="23.5" ry="7"/><path d="m251 306 24 4 5-4z" fill="#f8f8fc" fill-rule="evenodd"/><path d="m273 313-4 5 101 13-12-22z" fill="#f8f8fc" fill-rule="evenodd"/><path d="m44.949 232.5.1-.994 429 45-.1 1z" fill="#e6e6f2" fill-rule="evenodd"/><path d="m309 291-32 25 95 16 8-33z" fill="#fff" fill-rule="evenodd" stroke="#e6e6f2"/><path d="m293 285-26 29 100 5 4-31z" fill="#fff" fill-rule="evenodd" stroke="#e6e6f2"/><path d="m314 292-58 11-7 3h8l59-11s4.5-3.5-2-3z" fill="#e6e6f2" fill-rule="evenodd"/><path d="m316 292s-.571-4.286-7-2-11.715 7.571-16 4" fill="none" stroke="#e6e6f2" stroke-width="2"/><path d="m221 145-4 24 31 17 19-31-10-23z" fill="#a67c52" fill-rule="evenodd"/><path d="m259 141-1-7s3.2-8.4 7-10 7-8 7-8l3 6s12.2-.4 15 4-2 44-2 44l25 89-49-4-15-2-30-1-18-7-4-10s-5.054-95.243 17-98c1.6-.2 8 6 8 6l6 8 7 22 19-26z" fill="#32325c" fill-rule="evenodd"/><path d="m287 124s14-.6 20 8 5 60 5 60l-9 54s-26.565 17.82-80 10c-8.2-1.2 1-22 1-22s-7.676.382 44-7c4.2-.6 5.6-46 6-52s-9-45.2 13-51z" fill="#25254b" fill-rule="evenodd"/><path d="m216 137-5-12s-9.6-.6-14 7-16.8 67.2-15 72-20 20-20 20l26 19 18-17s-7.2-90 10-89z" fill="#25254b" fill-rule="evenodd"/><path d="m209 82s-1.633 12.533-2 21 .967 29.733 12 41 17.966 9.133 34-5 9.766-20.067 15-23 8.766-12.667 7-15-9.434-4.267-12 5 1-17 1-17l-19-14s-39.2-8.8-36 7z" fill="#a67c52" fill-rule="evenodd"/><path d="m257 135s-12.031 16-28 16c-3.214 0 16.857 19.143 28-16z" fill="#926941" fill-rule="evenodd"/><path d="m225 234s12.383 5.629 4 20c-2.8 4.8-14 1.4-25 5s-19.8 1.4-23 0-29.6-17.8-33-19-2-4-2-4-1-7.4 2-7 .6-4.6 7-2 30 7 30 7 8.2-2.2 8-5-7-1-7-1l-8-9s17.6 1.8 21 1 7.6 2.8 11 6 11.2 7.2 15 8z" fill="#a67c52" fill-rule="evenodd"/><path d="m208 97s-1.2-17-2-20-1.2-19.8 6-21 14.6-20.4 41-6 16 18 16 18 5.6-3 7 2-.61 28.915-2 31c-.4.6-2.4-3-5-1s-6 10-6 10l-2 8s.6-10-2-13-9.6-5.8-7-12 2.2-6.2-3-7-29.238-11.511-38-4c-1.4 1.2-3 15-3 15z" fill="#362f2d" fill-rule="evenodd"/><path d="m57.373 154.993c-5.116-.24-8.313 3.372-7.14 8.069s6.267 8.698 11.387 8.938 8.313-3.372 7.141-8.069-6.272-8.698-11.388-8.938zm3.153 12.517h-.057l-3.957-.186c-.663-2.656 1.878-2.536 2.269-3.2l-.015-.314a3.66 3.66 0 0 1 -1.925-2.36c-.342-1.369.351-2.434 1.548-2.378a3.4 3.4 0 0 1 2.786 2.582 1.841 1.841 0 0 1 -.76 2.225l.163.364c.784.69 3.252.848 3.9 3.46z" fill="#f9c053" fill-rule="evenodd"/><path d="m78 165 55 5 15 57" fill="none" stroke="#2699fb" stroke-dasharray="4 2"/><circle cx="73.5" cy="165.5" fill="#2699fb" r="2.5"/><g fill-rule="evenodd"><path d="m181.227 270.182 108.773 4.818c1.345.234 19.492.112 17 1l-83.7 31.756a16.3 16.3 0 0 1 -5.1.85l-131.2-13.606c-2.342-.091 18.86-6.265 20-7l64.617-15.922a15.648 15.648 0 0 1 9.61-1.896z" fill="#f8f8fc"/><path d="m181.227 263.182 108.773 5.818c1.345.234 1.492 7.112-1 8l-65.7 23.755a16.271 16.271 0 0 1 -5.1.851l-110.917-11.614c-2.342-.091-3.423-7.257-2.283-7.992l66.617-16.922a15.648 15.648 0 0 1 9.61-1.896z" fill="#f0f0fa" stroke="#e6e6f2"/><path d="m181.227 257.182 106.773 9.818c1.345.234 5.135 3.172 2.643 4.059l-67.346 23.7a16.271 16.271 0 0 1 -5.1.851l-110.914-11.618c-2.342-.091-3.351-.753-2.212-1.489l66.546-23.425a15.648 15.648 0 0 1 9.61-1.896z" fill="#fff" stroke="#e6e6f2"/><path d="m88.382 171.381 111.374 9.154c4.624.38 9.882 4.744 11.744 9.75l29.785 80.206c1.876 5.061-.368 8.839-5.014 8.435l-111.881-9.726c-4.646-.4-9.91-4.81-11.756-9.837l-29.309-79.669c-1.832-4.973.433-8.694 5.057-8.313z" fill="#fff" stroke="#c5c5d6"/><path d="m87.469 175.346a3.652 3.652 0 0 1 2.811 2.254c.425 1.152-.146 2.009-1.274 1.916a3.653 3.653 0 0 1 -2.811-2.253c-.424-1.153.146-2.01 1.274-1.917zm6.8.56a3.649 3.649 0 0 1 2.805 2.253c.425 1.152-.143 2.01-1.267 1.917a3.651 3.651 0 0 1 -2.807-2.253c-.42-1.151.147-2.009 1.272-1.917zm6.8.561a3.653 3.653 0 0 1 2.812 2.254c.426 1.152-.144 2.01-1.273 1.917a3.657 3.657 0 0 1 -2.812-2.254c-.42-1.152.15-2.01 1.278-1.917z" fill="#f9c053"/><path d="m90.379 188.616-.342-.927 17.269 1.433.342.928zm3.077 8.353-.342-.928 17.275 1.441.343.929zm3.079 8.363-.342-.93 17.282 1.448.343.931zm3.082 8.371-.343-.931 17.289 1.456.343.932zm3.084 8.38-.343-.932 17.3 1.464.342.933zm3.086 8.389-.343-.932 17.3 1.471.343.934zm10.822 29.434-.344-.936 17.326 1.5.345.936z" fill="#c5c5d6"/><path d="m115.35 184.839 55.679 4.608 8.118 21.908-55.735-4.671z" fill="#c5c5d6"/><path d="m139.814 243.78 22.9 1.961 5.709 15.468-22.914-1.979zm14.873-31.312 22.862 1.92 5.71 15.423-22.878-1.938z" fill="#d2e2ef"/><path d="m136.54 234.9 22.889 1.95 2.072 5.614-22.894-1.956z" fill="#6edaab"/><path d="m170.754 255.96 22.908 1.972 2.084 5.637-22.914-1.979z" fill="#6edaab"/><path d="m135.333 231.629-.344-.934 22.881 1.945.345.935zm-1.549-4.2-.344-.934 22.876 1.94.345.934zm-1.549-4.2-.344-.933 22.872 1.935.345.934zm-1.547-4.2-.344-.932 22.867 1.929.345.933zm-1.548-4.195-.34-.934 22.863 1.924.337.938zm-1.547-4.192-.343-.932 22.858 1.919.345.933zm42.127 42.5-.346-.937 22.9 1.967.347.939zm-1.557-4.218-.346-.937 22.9 1.963.348.938zm-1.557-4.215-.346-.937 22.893 1.957.346.938zm-1.556-4.209-.346-.936 22.888 1.952.347.937zm-1.555-4.211-.346-.936 22.883 1.947.347.937zm-1.555-4.209-.346-.935 22.879 1.942.347.936z" fill="#e2e2e2"/><path d="m192.3 233.3 31.572 2.679 12.728 34.309-31.621-2.736z" fill="#fff" stroke="#c5c5d6"/><path d="m177.59 193.6 31.513 2.613 12.68 34.136-31.564-2.67z" fill="#fff" stroke="#c5c5d6"/><path d="m192.5 221.984-.346-.935 13.356 1.125.347.936zm-1.559-4.208-.346-.934 17.242 1.449.347.935zm-1.559-4.205-.346-.934 22.856 1.916.347.936zm-1.557-4.2-.347-.933 22.852 1.911.347.935zm-1.558-4.2-.346-.933 18.96 1.581.347.935zm-1.557-4.2-.346-.932 22.843 1.9.347.934z" fill="#e2e2e2"/><path d="m207.261 261.833-.348-.94 15.545 1.34.349.941zm-1.561-4.233-.348-.939 22.9 1.969.349.94zm-1.565-4.227-.347-.939 22.9 1.964.349.94zm-1.563-4.224-.348-.939 22.894 1.959.348.94zm-1.572-4.218-.347-.938 19.428 1.658.348.939zm-1.562-4.22-.347-.937 19.423 1.654.349.938z" fill="#e2e2e2"/><path d="m59.8 210.575 53.33 4.622a7.112 7.112 0 0 1 5.534 4.458l9.445 27.076c.79 2.265-.406 3.943-2.671 3.746l-53.338-4.622a7.107 7.107 0 0 1 -5.533-4.458l-9.445-27.075c-.789-2.266.407-3.943 2.678-3.747z" fill="#fff" stroke="#c5c5d6" stroke-dasharray="4 2"/><path d="m60.6 215.07 15.082 1.307 5.3 15.207-15.082-1.308z" fill="#fff" stroke="#e6e6f2"/><path d="m67.392 234.534-.318-.912 14.78 1.281.318.912zm.849 2.433-.318-.912 14.78 1.281.318.912zm.849 2.433-.319-.913 6.938.6.319.913z" fill="#c5c5d6"/></g><path d="m79.907 216.743 15.083 1.307 5.3 15.207-15.082-1.308z" fill="none" stroke="#d2e2ef"/><path d="m86.7 236.207-.318-.912 15.082 1.307.319.913zm.849 2.434-.319-.913 15.082 1.307.318.913zm.849 2.433-.318-.913 7.239.628.318.912z" fill="#2699fb" fill-rule="evenodd"/><path d="m99.212 218.416 15.083 1.307 5.3 15.207-15.082-1.307z" fill="none" stroke="#d2e2ef"/><path d="m106 237.88-.319-.912 15.082 1.307.319.913zm.848 2.434-.318-.913 15.082 1.307.318.913zm.849 2.433-.318-.913 7.239.628.319.912z" fill="#2699fb" fill-rule="evenodd"/><path d="m73.928 189.755 113.143 12.156a7.442 7.442 0 0 1 5.474 4.574l30.909 83.03c.854 2.293-2.285 7.718-4.454 7.485l-111.072-15.911a7.446 7.446 0 0 1 -5.474-4.574l-33.454-79.515c-.854-2.293 2.759-7.478 4.928-7.245z" fill="#f0f0fa" fill-rule="evenodd" stroke="#e6e6f2"/><path d="m70.928 193.755 113.143 12.156a7.442 7.442 0 0 1 5.474 4.574l30.909 83.03c.854 2.293-.213 3.963-2.383 3.729l-113.143-12.155a7.447 7.447 0 0 1 -5.474-4.574l-30.909-83.03c-.853-2.293.214-3.963 2.383-3.73z" fill="#fff" fill-rule="evenodd" stroke="#e6e6f2"/><path d="m328 143s-8-3.45-13 15-11 59-11 59-5.6 31.95 0 36 28 4 28 4v-63l12-50z" fill="#7878a6" fill-rule="evenodd"/><path d="m322 68-11 11a27.009 27.009 0 0 0 -7 26c4.033 16.167 14.654 31.39 13 39-.167.767 5.766-4.167 9-3s18-29 18-29z" fill="#fcc864" fill-rule="evenodd"/><path d="m322 78s-5.729 5.961-7 18a101.266 101.266 0 0 0 1 21c.833 4.167-2.434 9.233-1 11s6 2 6 2 3.767 13.233 5 17 7.566 11.633 40-10 7-33 7-33z" fill="#f3b58c" fill-rule="evenodd"/><path d="m324 79s2.855 27.1 36 36c5.833 1.567 1.167 24.233 10 29s16 5 16 5 9.766-10.367 17-10 11.166.433 18 23-1.216 31.944 1 42c.433 1.967-.034-8.567 5-13s20.166-32.167 2-47-23.234-30.367-25-37-16.633-60.167-47-57-40.27 16.393-46 29c-.167.367 13 0 13 0z" fill="#fcc864" fill-rule="evenodd"/><path d="m320 109s-.78 14.558 5 16 6.6-6.817 5-12-6.25-9.5-10-4z" fill="none" stroke="#7878a6" stroke-width="2"/><path d="m308 104s-.78 14.558 5 16 6.6-6.817 5-12-6.25-9.5-10-4z" fill="none" stroke="#7878a6" stroke-width="2"/><path d="m316 106 6 2" fill="none" stroke="#7878a6" stroke-width="2"/><path d="m329 113 21-3" fill="none" stroke="#7878a6" stroke-width="2"/><path d="m309 222s-11.3-2.95-16-6-13.8-3.783-24-1-16.967 3.05-18 4 .36 6.085 17 3c2.967-.55-1.467 4.383-10 5s-22.852 2.342-27 7c-2.034 2.283 23.866-1.45 21-1s20 13 20 13l5 1s9.321-6.955 16-7a56.872 56.872 0 0 1 12 1s11-13 4-19z" fill="#f3b58c" fill-rule="evenodd"/><path d="m360 160v-11l13-10s11.366 9.883 13 9 6.533-8.117 14-9 18.866-2.617 25 13 2.2 34.55 2 37-1.467 7.217-1 9-7.467 12.216-4 27 10 47 10 47l-60-6-38-4-12-1s0-60.117 5-75 11-35 11-35l9-4-2 16 2 19h6z" fill="#c5c5d6" fill-rule="evenodd"/><path d="m374 226-2-8-16-3-3 13z" fill="#fff" fill-rule="evenodd"/><path d="m321 256 27-2-26-16z" fill="#7878a6" fill-rule="evenodd"/><path d="m346 145-9 28-2 51 23 1 14-54-12-23-3 14-4 10-1-4z" fill="#fff" fill-rule="evenodd"/><path d="m355 225-1-5-19 8z" fill="#7878a6" fill-rule="evenodd"/><path d="m408 137s-19.8.75-22 12-12 75-12 75-59.2-1.25-64-1-6 14-6 14l1 4s29.4 17.35 48 18 39.2 4.95 49-11 27.6-65.05 27-76 1-35.6-21-35z" fill="#7878a6" fill-rule="evenodd"/><path d="m344 147s3.366-.45 3 5 0 24 0 24 2.033 2.883 6 1 8-18 8-18v-10l13-8-12-13z" fill="#f3b58c" fill-rule="evenodd"/><path d="m347 146s12.571-7.571 16-15 .714 31.143-16 15z" fill="#d89061" fill-rule="evenodd"/><path d="m309 222 14-3s6.533.483 6 11-5.467 18.65-10 20-16-9-16-9-.667-17.667 6-19z" fill="#fff" fill-rule="evenodd"/><circle cx="350" cy="186" fill="#d2e2ef" r="2"/><path d="m367 224s-.967-5.617 3-9c-2.169 1.85 10.169-10.017 35-14 2.109-.339 5.2 2.716-9 8s-12.3 5.883-10 6a169.386 169.386 0 0 0 18-2c.966-.383 7.866-3.45 11-3s1.7 3.216-1 5a33.829 33.829 0 0 1 -6 3s7.2-2.617 8-2 3.2 2.883 0 5-7.967 4.383-9 5-4 2-4 2" fill="#f3b58c" fill-rule="evenodd"/><path d="m361.253 239.787s-10.818-2.663-10.233 12.43 12.28 8.283 12.28 8.283v-4.143s-8.772 6.215-8.187-4.144 6.14-8.286 6.14-8.286v-4.144z" fill="#f0f0fa" fill-rule="evenodd" stroke="#e6e6f2"/><path d="m397 273.755c0 4-8.246 7.25-18.419 7.25s-18.42-3.246-18.42-7.25a3.042 3.042 0 0 1 .209-1.036h-.21v-43.5h36.84v43.505h-.21a3.018 3.018 0 0 1 .21 1.031z" fill="#fff" fill-rule="evenodd" stroke="#e6e6f2"/><ellipse cx="378.594" cy="230.25" fill="#f0f0fa" rx="18.406" ry="7.25" stroke="#e6e6f2"/><path d="m419.805 273.8s-8.175 44.3 27.374 43.178 30.594-40.778 30.594-40.778z" fill="#c5c5d6" fill-rule="evenodd"/><ellipse cx="448.39" cy="275.797" fill="#7878a6" rx="29.391" ry="6.797"/><path d="m478 243c-43.138 23.183 0 40.25-31 35 0 0 3.638-46.433 24-52s42.888-51.433 44-60 6.138 53.817-37 77zm-38 35a11.674 11.674 0 0 1 -3.58-4.255c-.124.425-.263.844-.42 1.255 0 0-41.862-43.683-43-62-.849-13.66 28.9 13.354 40.041 38.549.585-8.021 2.572-18.325 6.959-31.549 16.112-48.567-11-80-11-80s31.138 9.317 27 57-6 79.25-16 81z" fill="#2699fb" fill-rule="evenodd"/><path d="m517 228c-6.862 25.067-46 47-46 47 7-24.75 52.862-72.067 46-47zm-68 48s-17.362-34.933 6-53 21.138-100.433 16-110 40.638 38.317 15 115-37 48-37 48zm-14-44s-10.612-17.183 2-40 6.888-67.433-1-77 45.888 21.817 26 76-23 40.75-27 41zm-9 43s-24.612-13.183-18-43-21.112-61.683-29-65 39.638-8.183 48 58 3.75 52.5-1 50zm10 5s-6.362-14.142-2-25 17 24 2 25z" fill="#59b1fc" fill-rule="evenodd"/><path d="m450 282s-4.612-25.683 9-39 22.388-48.433 23-63 6.633 38.057-20 65c-3.888 3.933-7.5-.625-12 37zm4-29s-6.862-4.558-3-17-1.5 4 3 17zm7-10s12.138 3.442 17-2 .5 1.75-17 2zm11-15s-5.112-6.558-4-17 .25 9.5 4 17zm-40 53s-13.612-13.058-15-36 1.925-42.585-13-58c-1.638-1.692 13.888 2.942 15 46s16.5 45.25 13 48zm-12-24 7-14s-.25 10-7 14zm-1-11-9-11s7.75 5 9 11zm-1-14 6-13s-6.5 6-6 13zm19 1s-.612-22.558 12-41 2-50 2-50 17.144 35.354-6 61c-3.888 4.308-8 30-8 30zm10-35-5-10s5.5 4.25 5 10zm5-8 9-5s-8.75 1-9 5zm4-10-9-16s8 5.75 9 16zm-16 34 12-3s-8.75-2-12 3z" fill="#2699fb" fill-rule="evenodd"/></svg>